<svg class="svg-icon" style="width: 1em; height: 1em;vertical-align: middle;fill: currentColor;overflow: hidden;" viewBox="0 0 1024 1024" version="1.1" xmlns="http://www.w3.org/2000/svg"><path d="M585.142857 819.931429L355.474286 702.171429a51.2 51.2 0 0 1-34.011429-48.64v-274.285715a51.382857 51.382857 0 0 1 34.011429-48.64L585.142857 212.662857a50.285714 50.285714 0 0 1 66.377143 48.457143v510.171429A50.468571 50.468571 0 0 1 585.142857 819.931429z" fill="#FFFFFF" /><path d="M337.371429 690.285714h-109.714286a56.32 56.32 0 0 1-56.502857-56.32V398.628571a56.502857 56.502857 0 0 1 56.502857-56.502857h109.714286z" fill="#FFFFFF" /><path d="M337.371429 690.285714h-109.714286c-31.268571 0-56.502857-13.714286-56.502857-30.72v-128c0-17.005714-5.851429-30.72 25.234285-30.72h141.714286z" fill="#EAEAEA" /><path d="M585.142857 821.211429l-229.668571-120.502858c-20.297143-3.84-34.011429-14.262857-34.011429-26.148571v-147.382857A28.16 28.16 0 0 1 347.428571 498.285714l274.285715 94.537143c30.902857 9.325714 29.257143 23.954286 29.257143 42.788572v159.451428c-0.365714 18.834286-34.194286 32.182857-65.828572 26.148572z" fill="#EAEAEA" /><path d="M600.502857 850.102857a77.531429 77.531429 0 0 1-25.417143-4.388571l-3.474285-1.462857-227.108572-116.845715a78.811429 78.811429 0 0 1-50.468571-73.142857v-274.285714a78.445714 78.445714 0 0 1 50.468571-73.142857l230.582857-118.491429a76.251429 76.251429 0 0 1 69.851429 10.057143 78.994286 78.994286 0 0 1 33.097143 64.365714v510.171429a79.542857 79.542857 0 0 1-33.097143 64.548571 76.068571 76.068571 0 0 1-44.434286 12.617143z m-5.851428-54.857143a21.942857 21.942857 0 0 0 18.285714-3.474285 23.771429 23.771429 0 0 0 10.057143-19.748572V261.12a23.771429 23.771429 0 0 0-10.057143-19.748571 21.394286 21.394286 0 0 0-18.285714-3.291429l-230.217143 118.125714a23.771429 23.771429 0 0 0-15.542857 22.674286v274.285714a23.588571 23.588571 0 0 0 15.542857 23.405715l3.657143 1.645714zM768 360.045714a27.428571 27.428571 0 0 1-14.445714-50.834285l105.325714-65.462858a27.428571 27.428571 0 1 1 29.074286 46.445715l-105.508572 65.645714a28.16 28.16 0 0 1-14.445714 4.205714zM872.411429 798.902857a28.16 28.16 0 0 1-14.445715-4.205714l-105.325714-65.645714a27.428571 27.428571 0 0 1 28.891429-46.445715l105.508571 65.462857A27.611429 27.611429 0 0 1 896 786.285714a27.977143 27.977143 0 0 1-23.588571 12.617143zM883.565714 546.56h-112.274285a27.428571 27.428571 0 1 1 0-54.857143h112.274285a27.428571 27.428571 0 1 1 0 54.857143z" fill="#808080" /><path d="M337.371429 717.714286h-109.714286a83.931429 83.931429 0 0 1-83.748572-83.748572V398.628571a83.931429 83.931429 0 0 1 83.748572-83.931428h109.714286v54.857143h-109.714286a29.074286 29.074286 0 0 0-28.891429 29.074285v235.337143a28.891429 28.891429 0 0 0 28.891429 28.891429h109.714286z" fill="#808080" /></svg>